<?xml version="1.0" encoding="UTF-8"?><svg xmlns="http://www.w3.org/2000/svg" viewBox="0 0 420.81 510.62"><defs><style>.e{fill:#fff;}</style></defs><g id="a"/><g id="b"><g id="c"><g id="d"><path class="e" d="M214.48,510.62h-7.99c-15.77-7.71-32.37-14.09-47.16-23.36C59.37,424.57,9.32,332.21,1.08,216.06c-1.95-27.48-.62-55.2-.87-82.8-.07-8.14,3.59-13.68,10.56-17.81C73.39,78.34,135.98,41.18,198.43,3.79c8.44-5.05,15.72-5.05,24.12-.03,62.32,37.29,124.74,74.4,187.23,111.39,7.75,4.59,11.12,10.73,11.02,19.59-.23,20.12-.06,40.25-.08,60.38-.05,50.7-9.67,99.44-30.55,145.73-29.33,65.01-74.08,116.29-136.7,151.18-12.55,6.99-25.98,12.42-39,18.58Zm-38.1-222.36c-8.88-8.97-16.57-17.25-24.87-24.88-3.12-2.87-7.43-5.21-11.55-6.06-6.92-1.43-13.64,2.79-16.81,9.06-3.3,6.53-2.2,14.22,3.27,19.79,11.43,11.62,23.02,23.09,34.55,34.61,10.48,10.48,19.14,10.53,29.55,.14,33.89-33.86,67.76-67.74,101.63-101.62,1.41-1.41,2.89-2.8,4.04-4.4,4.15-5.81,4.63-12.03,1.28-18.31-5.57-10.43-18.92-11.84-27.88-2.9-29.92,29.83-59.78,59.72-89.63,89.63-1.27,1.28-2.15,2.95-3.58,4.95Z"/></g></g></g></svg>