<?xml version="1.0" encoding="UTF-8"?><svg xmlns="http://www.w3.org/2000/svg" viewBox="0 0 479.11 479.24"><defs><style>.e{fill:#fff;}</style></defs><g id="a"/><g id="b"><g id="c"><g id="d"><g><path class="e" d="M432.84,381.85c8.76,8.71,17.44,17.42,26.21,26.05,3.02,2.97,5.31,6.06,3.39,10.54-1.9,4.44-5.68,4.94-9.93,4.93-27.44-.07-54.89-.03-82.34-.04-8.41,0-10.86-2.51-10.86-11.09,0-27.28,.03-54.57-.04-81.85-.01-4.42,.48-8.42,5.17-10.31,4.5-1.8,7.56,.7,10.49,3.68,7.47,7.58,15,15.09,22.84,22.96,.96-1.17,1.83-2.06,2.51-3.08,45.98-69.29,39.81-165.16-14.51-227.95-31.03-35.87-69.81-57.96-116.59-65.44-35.25-5.63-69.56-1.43-102.68,12.06-1.54,.63-3.05,1.33-4.61,1.89-5.17,1.86-8.67,.64-11.21-4.28-4.57-8.86-9.01-17.79-13.36-26.76-2.86-5.91-1.39-9.68,4.65-12.43C165.33,10.13,189.83,3.6,215.31,1.2c56.46-5.31,108.94,6.9,156.04,38.59,60.72,40.86,96.53,97.98,105.76,170.76,7.71,60.79-7.03,116.43-41.83,166.79-.66,.96-1.34,1.9-1.97,2.88-.17,.26-.19,.62-.48,1.62Z"/><path class="e" d="M46.52,97.67c-8.31-8.25-16.42-16.32-24.54-24.39-1.18-1.17-2.89-2.14-3.43-3.56-1.04-2.76-2.3-5.9-1.87-8.63,.57-3.58,3.85-5.18,7.57-5.18,28.94,0,57.89-.04,86.83,.03,5.57,.01,8.6,3.12,8.61,8.76,.07,28.78,.02,57.56,.04,86.35,0,3.68-1.44,6.43-4.87,7.96-3.73,1.66-6.79,.4-9.46-2.31-7.93-8.05-15.86-16.12-24.26-24.67-1.45,2.14-2.58,3.7-3.62,5.32-67.42,105.86-14.75,248.74,105.33,285.36,44.23,13.49,87.89,11.28,130.72-6.32,9.54-3.92,11.83-3.08,16.44,6.12,3.79,7.58,7.62,15.13,11.35,22.74,3.28,6.68,1.92,10.56-4.89,13.54-36.47,15.91-74.53,22.77-114.26,19.73-58.12-4.44-108.28-27.02-149.94-67.63C32.32,371.97,8.6,324.49,1.89,269c-7.44-61.56,7.19-117.75,42.78-168.5,.47-.68,.91-1.38,1.85-2.83Z"/><path class="e" d="M256.27,207.67c18.63,0,36.57,0,54.51,0,2.66,0,5.33-.08,7.98,.02,7.2,.28,10.68,6.32,7.11,12.54-2.4,4.18-5.1,8.18-7.68,12.26-28.67,45.4-57.34,90.8-86.01,136.2-.44,.7-.91,1.39-1.35,2.09-2.26,3.62-5.35,5.54-9.65,4.12-4.22-1.39-5.89-4.6-5.56-8.93,.79-10.28,1.58-20.56,2.38-30.84,1.5-19.4,3.02-38.8,4.5-58.2,.12-1.61,.02-3.23,.02-5.35-5.55,0-10.83,0-16.12,0-14.97,0-29.94-.04-44.91,.03-3.77,.02-7.58-.68-8.58-4.46-.75-2.81-.43-6.77,1.07-9.18,31.04-49.61,62.33-99.06,93.53-148.56,2.41-3.83,5.3-6.52,10.17-5.23,4.3,1.14,6.12,4.67,5.64,10.84-2.16,27.69-4.37,55.38-6.54,83.07-.23,2.97-.31,5.95-.5,9.58Z"/></g></g></g></g></svg>