<?xml version="1.0" encoding="UTF-8"?><svg xmlns="http://www.w3.org/2000/svg" viewBox="0 0 111.71 102.19"><defs><style>.e{fill:#fff;}</style></defs><g id="a"/><g id="b"><g id="c"><g id="d"><g><path class="e" d="M58.92,74.85c-.81,1.44-1.58,2.81-2.34,4.19-1.17,2.1-2.32,4.23-3.53,6.3-.89,1.53-1.68,3.04-.96,5.01h-8.73c0,.97,0,1.83,0,2.68,0,2.19,.03,4.37-.01,6.56-.03,1.7-.92,2.57-2.61,2.58-2.52,.02-5.05,.02-7.57,0-1.74-.02-2.6-.92-2.61-2.69-.01-2.64,0-5.28,0-7.91,0-.37,0-.73,0-1.23h-1.44c-8.59,0-17.18,0-25.77,0-.3,0-.6,0-.9,0-2.17-.05-3.03-1.54-1.98-3.43,3.47-6.21,6.94-12.42,10.41-18.63,.75-1.34,.66-1.48-.9-1.48-.83,0-1.66-.01-2.49,0-1.02,.02-1.98-.07-2.51-1.12-.52-1.03-.08-1.86,.53-2.7,4.4-6.02,8.78-12.06,13.17-18.09,.09-.12,.21-.23,.26-.37,.13-.33,.23-.66,.34-1-.35-.09-.69-.24-1.04-.26-.56-.04-1.13-.03-1.69,0-1.03,.04-1.97-.1-2.5-1.14-.51-1-.07-1.8,.48-2.61,4.1-6,8.19-12.01,12.28-18.02,.08-.12,.19-.24,.25-.37,.16-.36,.3-.73,.44-1.1-.38-.1-.76-.25-1.15-.29-.64-.05-1.28,.02-1.92-.03-1.29-.11-1.85-1.24-1.2-2.36,.13-.23,.3-.43,.46-.64,3.73-5.07,7.46-10.13,11.19-15.19,1.46-1.98,2.68-1.98,4.14,0,3.69,5,7.38,10.01,11.06,15.01,.2,.27,.42,.54,.59,.83,.66,1.12,.09,2.26-1.2,2.36-.67,.05-1.36-.01-2.03,.04-.35,.03-.69,.19-1.03,.29,.13,.34,.19,.71,.39,1,2.91,4.3,5.84,8.6,8.77,12.89,1.31,1.93,2.62,3.87,3.95,5.79,.53,.76,.79,1.55,.34,2.43-.45,.88-1.23,1.16-2.17,1.13-.64-.02-1.28-.03-1.92,0-.39,.03-.78,.17-1.17,.26,.15,.36,.23,.77,.45,1.08,2.78,3.85,5.55,7.7,8.38,11.51,.6,.81,.6,1.31-.02,2.12-2.28,3-4.46,6.07-6.67,9.12-2.27,3.13-1.51,5.94,2.19,7.51Z"/><path class="e" d="M69.72,53.87c-1.04,0-1.79,.11-2.49-.03-.64-.13-1.51-.39-1.76-.87-.25-.48-.06-1.42,.28-1.93,3.11-4.67,6.29-9.29,9.44-13.93,.24-.36,.45-.74,.86-1.43-.94,0-1.6,.09-2.23-.03-.5-.09-1.15-.32-1.38-.7-.19-.32-.01-1.05,.26-1.42,2.98-4.12,6-8.21,9.04-12.28,.87-1.16,1.89-1.16,2.76,.02,3.03,4.08,6.05,8.17,9.03,12.29,.26,.36,.41,1.06,.23,1.42-.18,.36-.81,.59-1.27,.67-.65,.11-1.33,.03-2.24,.03,.32,.59,.48,.99,.72,1.34,3.02,4.46,6.06,8.9,9.09,13.35,.21,.31,.44,.61,.63,.94,.74,1.28,.13,2.47-1.34,2.55-.84,.05-1.69,0-2.86,0,.42,.68,.63,1.06,.88,1.4,3.32,4.57,6.64,9.14,9.97,13.7,.5,.68,1.02,1.35,.53,2.26-.48,.89-1.3,.9-2.15,.88-.89-.02-1.78,0-2.91,0,.3,.63,.45,1.02,.66,1.4,2.57,4.6,5.14,9.2,7.71,13.8,1.09,1.96,.48,3.03-1.74,3.03-6.63,0-13.26,0-19.89,0h-1.47c0,.87,0,1.62,0,2.36,0,2.41,.02,4.82-.01,7.23-.02,1.51-.74,2.22-2.23,2.24-1.81,.03-3.62,.03-5.42,0-1.5-.02-2.2-.73-2.21-2.24-.02-2.75,0-5.5,0-8.25,0-.4,0-.81,0-1.34h-1.47c-6.63,0-13.26,0-19.89-.02-.58,0-1.26-.09-1.7-.4-.85-.61-.71-1.45-.23-2.31,2.62-4.66,5.22-9.33,7.82-14,.22-.39,.42-.78,.81-1.5-1.28,0-2.31,.09-3.31-.03-.61-.07-1.35-.33-1.74-.76-.67-.75-.16-1.53,.35-2.24,3.35-4.59,6.7-9.19,10.04-13.79,.25-.35,.45-.73,.87-1.41Z"/></g></g></g></g></svg>