<?xml version="1.0" encoding="UTF-8"?><svg xmlns="http://www.w3.org/2000/svg" viewBox="0 0 511.08 511"><defs><style>.e{fill:#fff;}</style></defs><g id="a"/><g id="b"><g id="c"><g id="d"><path class="e" d="M12.98,511H0c0-4.33,0-8.65,0-12.98,.21-.25,.52-.46,.63-.75,11.52-30.75,23.07-61.48,34.5-92.26,4.17-11.23,5.47-22.83,3.8-34.77-1.52-10.93-6.34-20.49-11.57-29.98-11.54-20.94-19.62-43.14-23.69-66.74C2.29,265.54,1.21,257.5,0,249.49c0-9.65,0-19.3,0-28.95,.3-1.26,.77-2.51,.88-3.78,3.99-46.67,21.26-88.03,51.33-123.67C102.21,33.85,167.12,4.07,243.89,.35c58.64-2.84,113.27,11.64,161.93,44.9,61.11,41.77,98.09,98.76,104.45,173.61,3.98,46.88-6.58,90.85-31.73,130.42-49.46,77.84-122.4,115.48-213.22,120.55-27.56,1.54-54.8-1.98-81.44-9.3-19.04-5.24-37.35-3.86-55.51,3.87-17.11,7.28-34.52,13.86-51.77,20.81-21.23,8.56-42.43,17.19-63.64,25.79ZM183.84,235.18c.07-16.82-13.34-30.48-30.13-30.67-16.97-.19-30.88,13.46-30.97,30.39-.08,16.72,13.47,30.48,30.19,30.67,17.02,.19,30.83-13.39,30.9-30.39Zm143.41-.2c-.04,16.8,13.43,30.43,30.21,30.59,16.95,.16,30.87-13.56,30.89-30.46,.02-16.75-13.53-30.45-30.27-30.6-17.01-.15-30.8,13.47-30.83,30.47Zm-71.62-30.47c-16.9-.04-30.94,13.97-30.76,30.7,.18,16.71,13.9,30.32,30.59,30.36,16.9,.04,30.97-14,30.76-30.69-.2-16.74-13.9-30.33-30.59-30.37Z"/></g></g></g></svg>