<?xml version="1.0" encoding="UTF-8"?><svg xmlns="http://www.w3.org/2000/svg" viewBox="0 0 82.1 106.98"><defs><style>.e{fill:#fff;}</style></defs><g id="a"/><g id="b"><g id="c"><g id="d"><g><path class="e" d="M36.28,106.98c-1.03-.14-2.06-.26-3.09-.41-11.81-1.8-21.08-7.67-27.29-17.85-7.37-12.09-7.74-24.7-1.67-37.48,.54-1.13,1.17-2.22,1.87-3.26C16.69,32.24,27.3,16.5,37.9,.77c.15-.23,.32-.45,.54-.77,.23,.3,.43,.55,.61,.82,4.58,6.78,9.14,13.57,13.74,20.34,.42,.62,.42,1.03,0,1.64-3.24,4.74-6.44,9.51-9.64,14.28-9.81,14.61-1.65,34.57,15.58,38.05,5.99,1.21,11.7,.29,17.06-2.7,.18-.1,.36-.21,.55-.3,.06-.03,.13-.01,.34-.02-.17,1.25-.25,2.49-.51,3.69-2.56,12.07-9.27,21.07-20.14,26.89-4.49,2.41-9.35,3.74-14.45,4.13-.31,.02-.61,.11-.92,.16h-4.39Z"/><path class="e" d="M63.68,17.95c1.53,2.28,2.97,4.41,4.4,6.54,3.66,5.43,7.33,10.84,10.97,16.28,7.48,11.14,.42,26.66-12.89,28.38-10.41,1.34-19.75-5.93-20.86-16.31-.46-4.29,.44-8.33,2.85-11.94,4.97-7.44,9.99-14.84,14.99-22.26,.13-.19,.28-.38,.52-.69Z"/></g></g></g></g></svg>